<?xml version="1.0" encoding="UTF-8"?>
<svg xmlns="http://www.w3.org/2000/svg" xmlns:xlink="http://www.w3.org/1999/xlink" width="129" height="112" viewBox="0 0 129 112">
  <defs>
    <linearGradient id="linear-gradient" x1="0.035" y1="1" x2="0.915" y2="0.085" gradientUnits="objectBoundingBox">
      <stop offset="0" stop-color="#39af2f"></stop>
      <stop offset="0.34" stop-color="#5dbf28"></stop>
      <stop offset="1" stop-color="#cdef11"></stop>
    </linearGradient>
  </defs>
  <path id="icon-speed-guage-fast-grad" d="M20.575,111a64,64,0,1,1,86.849,0ZM6,64a58.188,58.188,0,0,0,16.991,41h82.017A58,58,0,1,0,6,64ZM22.542,97a53,53,0,1,1,82.916,0Zm3-6h76.924a46.361,46.361,0,0,0,8.494-25H103V60h7.817A46.825,46.825,0,0,0,98.8,32.442l-6.052,6.052-4.242-4.242,5.98-5.981A46.772,46.772,0,0,0,67,17.106V25H61V17.106A46.767,46.767,0,0,0,33.514,28.272l5.98,5.981-4.242,4.242L29.2,32.442A46.826,46.826,0,0,0,17.182,60H25v6H17.044A46.338,46.338,0,0,0,25.538,91Zm36.842-6.181A12.5,12.5,0,1,1,72.671,63.055l21.543-15.22,3.461,4.9L76.133,67.954A12.5,12.5,0,0,1,64.526,85,12.539,12.539,0,0,1,62.381,84.819ZM60.75,67.191a6.5,6.5,0,1,0,7.5,10.616h0A6.5,6.5,0,0,0,65.6,66.094a6.606,6.606,0,0,0-1.116-.1A6.448,6.448,0,0,0,60.75,67.191Z" transform="translate(0.5 0.5)" stroke="rgba(0,0,0,0)" stroke-miterlimit="10" stroke-width="1" fill="url(#linear-gradient)"></path>
</svg>
